<?xml version="1.0" encoding="utf-8"?>
<!-- Generator: Adobe Illustrator 24.3.0, SVG Export Plug-In . SVG Version: 6.00 Build 0)  -->
<svg version="1.1" id="Layer_1" xmlns="http://www.w3.org/2000/svg" xmlns:xlink="http://www.w3.org/1999/xlink" x="0px" y="0px"
	 viewBox="0 0 100 100" style="enable-background:new 0 0 100 100;" xml:space="preserve">
<style type="text/css">
	.st0{fill:#00629B;}
	.st1{fill-rule:evenodd;clip-rule:evenodd;fill:#FFFFFF;}
</style>
<path class="st0" d="M87.9,97.1h-77c-5,0-9-4-9-9v-77c0-5,4-9,9-9h77c5,0,9,4,9,9v77C96.9,93.1,92.8,97.1,87.9,97.1z"/>
<g id="Icons">
	<g id="Color-" transform="translate(-601.000000, -363.000000)">
		<path id="Blogger" class="st1" d="M664.1,430.3h-25.5c-2.4,0-4.4-2-4.4-4.3c0-2.4,2-4.3,4.4-4.3h25.5c2.4,0,4.3,2,4.3,4.3
			C668.3,428.4,666.4,430.3,664.1,430.3 M638.5,395.9H651c2.4,0,4.4,2,4.4,4.3c0,2.4-2,4.3-4.4,4.3h-12.5c-2.4,0-4.4-2-4.4-4.3
			S636.1,395.9,638.5,395.9 M685.2,405.1c-1.5-0.6-7.9,0.1-9.8-1.5c-1.2-1.2-1.3-3.3-1.9-6.1c-0.8-4.7-1.2-5.8-2.1-7.7
			c-3.1-6.6-10.6-12.3-17.5-12.3h-15.9c-12.5,0-22.7,10.2-22.7,22.6v26.3c0,12.4,10.2,22.6,22.7,22.6h26.1
			c12.5,0,22.6-10.2,22.7-22.6l0.2-18.2C687,408.1,687,405.9,685.2,405.1"/>
	</g>
</g>
</svg>
