<?xml version="1.0" encoding="utf-8"?>
<!-- Generator: Adobe Illustrator 22.1.0, SVG Export Plug-In . SVG Version: 6.00 Build 0)  -->
<svg version="1.1" id="Layer_1" xmlns="http://www.w3.org/2000/svg" xmlns:xlink="http://www.w3.org/1999/xlink" x="0px" y="0px"
	 viewBox="0 0 21.1 21.1" style="enable-background:new 0 0 21.1 21.1;" xml:space="preserve">
<style type="text/css">
	.st0{fill:#231F20;}
</style>
<path class="st0" d="M3.1,18C-1,13.9-1,7.2,3.1,3.1C7.2-1,13.9-1,18,3.1c4.1,4.1,4.1,10.8,0,14.9C13.9,22.1,7.2,22.1,3.1,18L3.1,18z
	 M16.6,4.4c-3.4-3.4-8.8-3.4-12.2,0c-3.4,3.4-3.4,8.8,0,12.2c3.4,3.4,8.8,3.4,12.2,0C20,13.3,20,7.8,16.6,4.4
	C16.6,4.4,16.6,4.4,16.6,4.4z"/>
<rect x="6.7" y="9.6" class="st0" width="7.7" height="1.9"/>
</svg>
