<?xml version="1.0" encoding="utf-8"?>
<!-- Generator: Adobe Illustrator 24.3.0, SVG Export Plug-In . SVG Version: 6.00 Build 0)  -->
<svg version="1.1" id="Layer_1" xmlns="http://www.w3.org/2000/svg" xmlns:xlink="http://www.w3.org/1999/xlink" x="0px" y="0px"
	 viewBox="0 0 100 100" style="enable-background:new 0 0 100 100;" xml:space="preserve">
<style type="text/css">
	.st0{fill:#00629B;}
	.st1{fill:#FFFFFF;}
</style>
<path class="st0" d="M87.9,97.1h-77c-5,0-9-4-9-9v-77c0-5,4-9,9-9h77c5,0,9,4,9,9v77C96.9,93.1,92.8,97.1,87.9,97.1z"/>
<g>
	<path class="st1" d="M47.2,36.5c-5.9,1.3-10,5.9-10.9,11.4L62.1,42C58.8,37.5,53.1,35.2,47.2,36.5z"/>
	<path class="st1" d="M50.4,11.5c-21.3,0-38.6,17.3-38.6,38.6s17.3,38.6,38.6,38.6S89,71.4,89,50.1S71.7,11.5,50.4,11.5z M53.7,63.6
		c3.6-0.8,6.6-2.9,8.6-5.9l12.2,2.9c-3.4,7.1-9.8,12.8-18.1,14.6C42.2,78.5,28.1,69.9,24.8,56s5.6-27.7,19.7-31S72.8,30.4,76,44.2
		c0.4,1.6,0.6,3.4,0.7,5.1l-8.1,1.8l-4.1,1L38.7,58C42,62.6,47.8,64.9,53.7,63.6z"/>
</g>
</svg>
