<?xml version="1.0" encoding="utf-8"?>
<!-- Generator: Adobe Illustrator 22.1.0, SVG Export Plug-In . SVG Version: 6.00 Build 0)  -->
<svg version="1.1" id="Layer_1" xmlns="http://www.w3.org/2000/svg" xmlns:xlink="http://www.w3.org/1999/xlink" x="0px" y="0px"
	 viewBox="0 0 21.1 21.1" style="enable-background:new 0 0 21.1 21.1;" xml:space="preserve">
<style type="text/css">
	.st0{fill:#010101;}
</style>
<path class="st0" d="M10.5,21.1C4.7,21.1,0,16.4,0,10.5C0,4.7,4.7,0,10.5,0s10.5,4.7,10.5,10.5C21.1,16.4,16.4,21.1,10.5,21.1
	L10.5,21.1z M10.5,1.9c-4.8,0-8.6,3.9-8.6,8.6s3.9,8.6,8.6,8.6c4.8,0,8.6-3.9,8.6-8.6C19.2,5.8,15.3,1.9,10.5,1.9
	C10.5,1.9,10.5,1.9,10.5,1.9z"/>
<rect x="6.7" y="9.6" class="st0" width="7.7" height="1.9"/>
<rect x="9.6" y="6.7" class="st0" width="1.9" height="7.7"/>
</svg>
