<?xml version="1.0" encoding="utf-8"?>
<!-- Generator: Adobe Illustrator 24.3.0, SVG Export Plug-In . SVG Version: 6.00 Build 0)  -->
<svg version="1.1" id="Layer_1" xmlns="http://www.w3.org/2000/svg" xmlns:xlink="http://www.w3.org/1999/xlink" x="0px" y="0px"
	 viewBox="0 0 100 100" style="enable-background:new 0 0 100 100;" xml:space="preserve">
<style type="text/css">
	.st0{fill:#00629B;}
	.st1{fill:#FFFFFF;}
</style>
<path class="st0" d="M87.9,97.1h-77c-5,0-9-4-9-9v-77c0-5,4-9,9-9h77c5,0,9,4,9,9v77C96.9,93.1,92.8,97.1,87.9,97.1z"/>
<g>
	<g>
		<path class="st1" d="M90.5,50.4c0-22.2-18-40.2-40.2-40.2S10,28.2,10,50.4c0,20.1,14.8,36.7,34,39.7V62H33.8V50.4H44v-8.9
			c0-10.1,6-15.6,15.2-15.6c4.4,0,9,0.8,9,0.8v9.9h-5.1c-5,0-6.6,3.1-6.6,6.3v7.5h11.2L65.9,62h-9.4v28.1
			C75.8,87.1,90.5,70.5,90.5,50.4L90.5,50.4z"/>
	</g>
</g>
</svg>
