<?xml version="1.0" encoding="utf-8"?>
<!-- Generator: Adobe Illustrator 24.3.0, SVG Export Plug-In . SVG Version: 6.00 Build 0)  -->
<svg version="1.1" id="Capa_1" xmlns="http://www.w3.org/2000/svg" xmlns:xlink="http://www.w3.org/1999/xlink" x="0px" y="0px"
	 viewBox="0 0 800 800" style="enable-background:new 0 0 800 800;" xml:space="preserve">
<style type="text/css">
	.st0{fill:#333333;}
</style>
<g>
	<path class="st0" d="M683,117.3C526.9-39,273.6-39.1,117.3,117C-39,273.1-39.1,526.4,117,682.7C273.1,839,526.4,839.1,682.7,683
		C839,526.9,839.1,273.6,683,117.3z M455.9,653.8c0,6.2-5,11.2-11.2,11.2h-89.4c-6.2,0-11.2-5-11.2-11.2V322.1
		c0-6.2,5-11.2,11.2-11.2h89.4c6.2,0,11.2,5,11.2,11.2V653.8z M400,264.6c-35.7,0-64.8-29.1-64.8-64.8c0-35.7,29.1-64.8,64.8-64.8
		s64.8,29.1,64.8,64.8C464.8,235.5,435.7,264.6,400,264.6z"/>
</g>
</svg>
