<?xml version="1.0" encoding="utf-8"?>
<!-- Generator: Adobe Illustrator 24.3.0, SVG Export Plug-In . SVG Version: 6.00 Build 0)  -->
<svg version="1.1" id="Layer_1" xmlns="http://www.w3.org/2000/svg" xmlns:xlink="http://www.w3.org/1999/xlink" x="0px" y="0px"
	 viewBox="0 0 100 100" style="enable-background:new 0 0 100 100;" xml:space="preserve">
<style type="text/css">
	.st0{fill:#00629B;}
	.st1{fill:#FFFFFF;}
</style>
<path class="st0" d="M87.9,97.1h-77c-5,0-9-4-9-9v-77c0-5,4-9,9-9h77c5,0,9,4,9,9v77C96.9,93.1,92.8,97.1,87.9,97.1z"/>
<path class="st1" d="M34.8,12.2c-4,0.2-6.8,0.8-9.2,1.8c-2.5,0.9-4.6,2.3-6.8,4.4s-3.4,4.2-4.3,6.8c-0.9,2.4-1.6,5.2-1.8,9.2
	c-0.2,4-0.2,5.3-0.2,15.6s0.1,11.7,0.3,15.7c0.2,4,0.8,6.8,1.8,9.2c0.9,2.5,2.3,4.6,4.4,6.8c2.2,2.2,4.2,3.4,6.8,4.3
	c2.4,0.9,5.2,1.6,9.2,1.8C39,88,40.3,88,50.7,88s11.7-0.1,15.7-0.3c4-0.2,6.8-0.8,9.2-1.8c2.5-0.9,4.6-2.3,6.8-4.4
	c2.2-2.2,3.4-4.2,4.3-6.8c0.9-2.4,1.6-5.2,1.8-9.2c0.2-4,0.2-5.4,0.2-15.7s-0.1-11.7-0.3-15.7c-0.2-4-0.8-6.8-1.8-9.2
	c-0.9-2.5-2.3-4.6-4.4-6.8c-2.1-2.1-4.2-3.4-6.8-4.3c-2.4-0.9-5.2-1.6-9.2-1.8c-4-0.2-5.4-0.2-15.7-0.2S38.8,12,34.8,12.2
	 M35.3,80.9c-3.7-0.2-5.7-0.8-7.1-1.3c-1.8-0.7-3-1.5-4.4-2.8c-1.3-1.3-2.2-2.6-2.8-4.3c-0.6-1.3-1.1-3.4-1.3-7.1
	c-0.2-4-0.2-5.2-0.3-15.3c-0.1-10.2,0-11.4,0.2-15.3c0.2-3.7,0.8-5.7,1.3-7.1c0.7-1.8,1.5-3,2.8-4.4c1.3-1.4,2.6-2.2,4.3-2.8
	c1.3-0.6,3.4-1.1,7.1-1.3c4-0.2,5.2-0.2,15.3-0.3s11.4,0,15.3,0.2c3.7,0.2,5.7,0.8,7.1,1.3c1.8,0.7,3,1.5,4.4,2.8
	c1.3,1.3,2.2,2.6,2.8,4.3c0.6,1.3,1.1,3.4,1.3,7.1c0.2,4,0.2,5.2,0.3,15.3s0,11.4-0.2,15.3c-0.2,3.7-0.8,5.7-1.3,7.1
	c-0.7,1.8-1.5,3-2.8,4.4C76,78,74.7,78.9,73,79.5c-1.3,0.6-3.4,1.1-7.1,1.3c-4,0.2-5.2,0.2-15.3,0.3C40.4,81.2,39.2,81,35.3,80.9
	 M66.2,29.6c0,2.5,2.1,4.5,4.6,4.5s4.5-2.1,4.5-4.6S73.3,25,70.7,25l0,0C68.3,25.1,66.2,27,66.2,29.6 M31,50
	c0,10.8,8.7,19.5,19.6,19.5s19.5-8.7,19.5-19.6s-8.7-19.5-19.6-19.5S31,39.2,31,50 M37.9,49.9c0-7,5.6-12.7,12.6-12.7
	s12.7,5.6,12.7,12.7c0,7-5.6,12.7-12.6,12.7C43.5,62.6,37.9,57,37.9,49.9L37.9,49.9"/>
</svg>
