<?xml version="1.0" encoding="utf-8"?>
<!-- Generator: Adobe Illustrator 24.3.0, SVG Export Plug-In . SVG Version: 6.00 Build 0)  -->
<svg version="1.1" id="Layer_1" xmlns="http://www.w3.org/2000/svg" xmlns:xlink="http://www.w3.org/1999/xlink" x="0px" y="0px"
	 viewBox="0 0 100 100" style="enable-background:new 0 0 100 100;" xml:space="preserve">
<style type="text/css">
	.st0{fill:#00629B;}
	.st1{fill:#FFFFFF;}
</style>
<path class="st0" d="M87.9,97.1h-77c-5,0-9-4-9-9v-77c0-5,4-9,9-9h77c5,0,9,4,9,9v77C96.9,93.1,92.8,97.1,87.9,97.1z"/>
<path class="st1" d="M85,19.8v60.5c0,1.4-0.5,2.7-1.5,3.7c-1,1-2.3,1.5-3.7,1.5H19.2c-1.4,0-2.7-0.5-3.7-1.5c-1-1-1.5-2.3-1.5-3.7
	V19.8c0-1.4,0.5-2.7,1.5-3.7c1-1,2.3-1.5,3.7-1.5h60.5c1.4,0,2.7,0.5,3.7,1.5C84.4,17.2,85,18.5,85,19.8z M34.9,41.8H24.4v33.4h10.4
	V41.8z M35.9,30.3c0-0.8-0.2-1.6-0.4-2.3c-0.3-0.7-0.7-1.4-1.3-1.9c-0.5-0.5-1.2-1-1.9-1.3c-0.7-0.3-1.5-0.4-2.3-0.4h-0.2
	c-1.6,0-3.2,0.6-4.2,1.8c-1.2,1.2-1.8,2.7-1.8,4.2c0,1.6,0.6,3.1,1.8,4.2c1.2,1.2,2.7,1.8,4.2,1.8c0.8,0,1.6-0.1,2.3-0.4
	c0.7-0.3,1.4-0.7,1.9-1.2c0.5-0.5,1.1-1.2,1.3-1.9C35.6,31.9,35.8,31.1,35.9,30.3L35.9,30.3L35.9,30.3z M74.6,54.9
	c0-10-6.4-13.9-12.7-13.9c-2-0.1-4.2,0.4-6,1.2c-1.9,1-3.5,2.4-4.6,4.1h-0.3v-4.5h-9.7v33.4h10.4V57.4c-0.2-1.9,0.4-3.6,1.6-5
	c1.2-1.4,2.8-2.3,4.7-2.5h0.4c3.3,0,5.8,2.1,5.8,7.3v17.9h10.4L74.6,54.9z"/>
</svg>
