<?xml version="1.0" encoding="utf-8"?>
<!-- Generator: Adobe Illustrator 24.3.0, SVG Export Plug-In . SVG Version: 6.00 Build 0)  -->
<svg version="1.1" id="Layer_1" xmlns="http://www.w3.org/2000/svg" xmlns:xlink="http://www.w3.org/1999/xlink" x="0px" y="0px"
	 viewBox="0 0 100 100" style="enable-background:new 0 0 100 100;" xml:space="preserve">
<style type="text/css">
	.st0{fill:#00629B;}
	.st1{fill:#FFFFFF;}
</style>
<path class="st0" d="M87.9,97.1h-77c-5,0-9-4-9-9v-77c0-5,4-9,9-9h77c5,0,9,4,9,9v77C96.9,93.1,92.8,97.1,87.9,97.1z"/>
<path class="st1" d="M50.4,9.9C28,9.9,9.9,28,9.9,50.4c0,22.3,18.1,40.4,40.4,40.4c22.3,0,40.4-18.1,40.4-40.4
	C90.8,28,72.7,9.9,50.4,9.9z M54.4,64.2c-3.2,0-6.3-1.7-7.3-3.6c0,0-1.7,6.7-2.1,8c-1.3,4.6-5.1,9.1-5.4,9.5
	c-0.2,0.3-0.7,0.2-0.7-0.2c-0.1-0.6-1.1-6.3,0.1-11L42.8,51c0,0-1-1.9-1-4.6c0-4.3,2.6-7.5,5.8-7.5c2.7,0,4,2,4,4.4
	c0,2.7-1.7,6.6-2.6,10.3c-0.8,3.1,1.6,5.6,4.7,5.6c5.7,0,9.5-7.1,9.5-15.4c0-6.4-4.4-11.1-12.5-11.1c-9.1,0-14.8,6.6-14.8,13.9
	c0,2.5,0.8,4.3,2,5.7c0.6,0.6,0.6,0.9,0.4,1.6l-0.6,2.3c-0.2,0.7-0.8,1-1.5,0.7c-4.2-1.7-6.1-6.1-6.1-11.1c0-8.2,7.2-18.1,21.4-18.1
	c11.5,0,19,8,19,16.6C70.6,55.6,64,64.2,54.4,64.2z"/>
</svg>
