<?xml version="1.0" encoding="utf-8"?>
<!-- Generator: Adobe Illustrator 24.3.0, SVG Export Plug-In . SVG Version: 6.00 Build 0)  -->
<svg version="1.1" id="Layer_1" xmlns="http://www.w3.org/2000/svg" xmlns:xlink="http://www.w3.org/1999/xlink" x="0px" y="0px"
	 viewBox="0 0 100 100" style="enable-background:new 0 0 100 100;" xml:space="preserve">
<style type="text/css">
	.st0{fill:#00629B;}
	.st1{fill-rule:evenodd;clip-rule:evenodd;fill:#FFFFFF;}
</style>
<path class="st0" d="M87.9,97.1h-77c-5,0-9-4-9-9v-77c0-5,4-9,9-9h77c5,0,9,4,9,9v77C96.9,93.1,92.8,97.1,87.9,97.1z"/>
<g>
	<path class="st1" d="M10.2,78.8c0-6.3,5.1-11.5,11.5-11.5s11.5,5.1,11.5,11.5S28,90.2,21.6,90.2S10.2,85.1,10.2,78.8z M90.5,90.2
		H75.2c0-35.9-29.2-65-65-65V9.9C54.5,9.9,90.5,46,90.5,90.2z M63.7,90.2H48.4C48.4,69.1,31.3,52,10.2,52V36.7
		C39.7,36.7,63.7,60.7,63.7,90.2z"/>
</g>
</svg>
