<?xml version="1.0" encoding="utf-8"?>
<!-- Generator: Adobe Illustrator 24.3.0, SVG Export Plug-In . SVG Version: 6.00 Build 0)  -->
<svg version="1.1" id="Layer_1" xmlns="http://www.w3.org/2000/svg" xmlns:xlink="http://www.w3.org/1999/xlink" x="0px" y="0px"
	 viewBox="0 0 100 100" style="enable-background:new 0 0 100 100;" xml:space="preserve">
<style type="text/css">
	.st0{fill:#00629B;}
	.st1{fill:#FFFFFF;}
</style>
<path class="st0" d="M87.9,97.1h-77c-5,0-9-4-9-9v-77c0-5,4-9,9-9h77c5,0,9,4,9,9v77C96.9,93.1,92.8,97.1,87.9,97.1z"/>
<g>
	<g>
		<path class="st1" d="M74.4,26.6c-4.3-2.8-7.4-7.3-8.4-12.5c-0.2-1.1-0.3-2.3-0.3-3.5H52l0,54.9c-0.2,6.2-5.3,11.1-11.5,11.1
			c-1.9,0-3.7-0.5-5.3-1.3c-3.7-1.9-6.2-5.8-6.2-10.2c0-6.4,5.2-11.5,11.5-11.5c1.2,0,2.3,0.2,3.4,0.5V43.4v-3.2
			c-1.1-0.2-2.2-0.2-3.4-0.2c-13.9,0-25.2,11.3-25.2,25.2c0,8.5,4.3,16.1,10.8,20.7c4.1,2.9,9.1,4.6,14.5,4.6
			c13.9,0,25.2-11.3,25.2-25.2V37.3c5.4,3.9,12,6.1,19.1,6.1V32.7v-3.1C80.9,29.7,77.4,28.6,74.4,26.6z"/>
	</g>
</g>
</svg>
