<?xml version="1.0" encoding="utf-8"?>
<!-- Generator: Adobe Illustrator 24.3.0, SVG Export Plug-In . SVG Version: 6.00 Build 0)  -->
<svg version="1.1" id="Layer_1" xmlns="http://www.w3.org/2000/svg" xmlns:xlink="http://www.w3.org/1999/xlink" x="0px" y="0px"
	 viewBox="0 0 100 100" style="enable-background:new 0 0 100 100;" xml:space="preserve">
<style type="text/css">
	.st0{fill:#00629B;}
	.st1{fill:#FFFFFF;}
</style>
<path class="st0" d="M87.9,97.1h-77c-5,0-9-4-9-9v-77c0-5,4-9,9-9h77c5,0,9,4,9,9v77C96.9,93.1,92.8,97.1,87.9,97.1z"/>
<path class="st1" d="M57,83.8c-10.5,0-18.2-5.4-18.2-18.2V45h-9.5V33.9c10.5-2.7,14.8-11.7,15.3-19.4h10.8v17.6h12.6v13H55.4V63
	c0,5.4,2.7,7.2,7.1,7.2h6.1v13.7H57V83.8z"/>
</svg>
