<?xml version="1.0" encoding="utf-8"?>
<!-- Generator: Adobe Illustrator 24.3.0, SVG Export Plug-In . SVG Version: 6.00 Build 0)  -->
<svg version="1.1" id="Layer_1" xmlns="http://www.w3.org/2000/svg" xmlns:xlink="http://www.w3.org/1999/xlink" x="0px" y="0px"
	 viewBox="0 0 100 100" style="enable-background:new 0 0 100 100;" xml:space="preserve">
<style type="text/css">
	.st0{fill:#00629B;}
	.st1{fill:#FFFFFF;}
</style>
<path class="st0" d="M87.9,97.1h-77c-5,0-9-4-9-9v-77c0-5,4-9,9-9h77c5,0,9,4,9,9v77C96.9,93.1,92.8,97.1,87.9,97.1z"/>
<path class="st1" d="M91,50.5c0,22.2-18,40.2-40.2,40.2s-40.2-18-40.2-40.2s18-40.2,40.2-40.2S91,28.3,91,50.5z M43.4,71.7
	C61.3,71.7,71,57,71,44.2c0-0.4,0-0.8,0-1.2c1.9-1.4,3.5-3.1,4.8-5c-1.7,0.8-3.6,1.3-5.6,1.5c2-1.2,3.5-3.1,4.3-5.4
	c-1.9,1.1-3.9,1.9-6.2,2.4c-1.8-1.9-4.3-3.1-7.1-3.1c-5.3,0-9.7,4.3-9.7,9.7c0,0.8,0.1,1.5,0.3,2.2c-8.1-0.4-15.2-4.3-20-10.1
	c-0.8,1.4-1.3,3.1-1.3,4.9c0,3.4,1.7,6.3,4.3,8.1c-1.6,0-3.1-0.5-4.4-1.2v0.1c0,4.7,3.3,8.6,7.8,9.5c-0.8,0.2-1.7,0.3-2.6,0.3
	c-0.6,0-1.2-0.1-1.8-0.2c1.2,3.9,4.8,6.7,9,6.7c-3.3,2.6-7.5,4.1-12,4.1c-0.8,0-1.5,0-2.3-0.1C32.9,70.1,38,71.7,43.4,71.7"/>
</svg>
