<?xml version="1.0" encoding="utf-8"?>
<!-- Generator: Adobe Illustrator 24.3.0, SVG Export Plug-In . SVG Version: 6.00 Build 0)  -->
<svg version="1.1" id="Layer_1" xmlns="http://www.w3.org/2000/svg" xmlns:xlink="http://www.w3.org/1999/xlink" x="0px" y="0px"
	 viewBox="0 0 100 100" style="enable-background:new 0 0 100 100;" xml:space="preserve">
<style type="text/css">
	.st0{fill:#00629B;}
	.st1{fill-rule:evenodd;clip-rule:evenodd;fill:#FFFFFF;}
</style>
<path class="st0" d="M87.9,97.1h-77c-5,0-9-4-9-9v-77c0-5,4-9,9-9h77c5,0,9,4,9,9v77C96.9,93.1,92.8,97.1,87.9,97.1z"/>
<g id="Dribbble-Light-Preview" transform="translate(-60.000000, -7560.000000)">
	<g id="icons" transform="translate(56.000000, 160.000000)">
		<path id="vimeo-_x5B__x23_144_x5D_" class="st1" d="M93.7,7434.6c-0.4,7.6-5.8,18.1-16.3,31.4c-10.9,13.9-20.1,20.8-27.6,20.8
			c-4.7,0-8.6-4.2-11.8-12.7l-6.4-23.3c-2.4-8.5-5-12.7-7.7-12.7c-0.6,0-2.7,1.2-6.3,3.7l-3.8-4.8c3.9-3.4,7.8-6.8,11.6-10.2
			c5.3-4.5,9.2-6.8,11.8-7.1c6.2-0.6,10,3.6,11.5,12.5c1.6,9.6,2.6,15.6,3.2,18c1.8,8,3.8,12,5.9,12c1.7,0,4.2-2.6,7.5-7.8
			c3.3-5.2,5.1-9.1,5.4-11.8c0.5-4.5-1.3-6.7-5.4-6.7c-1.9,0-3.9,0.4-5.9,1.2c3.9-12.6,11.5-18.7,22.6-18.3
			C90.3,7419.2,94.1,7424.4,93.7,7434.6L93.7,7434.6z"/>
	</g>
</g>
</svg>
