<?xml version="1.0" encoding="utf-8"?>
<!-- Generator: Adobe Illustrator 24.3.0, SVG Export Plug-In . SVG Version: 6.00 Build 0)  -->
<svg version="1.1" id="Capa_1" xmlns="http://www.w3.org/2000/svg" xmlns:xlink="http://www.w3.org/1999/xlink" x="0px" y="0px"
	 viewBox="0 0 800 800" style="enable-background:new 0 0 800 800;" xml:space="preserve">
<style type="text/css">
	.st0{fill:#333333;}
</style>
<g>
	<path class="st0" d="M777.3,557.5L514.6,102.2c-23.7-41-67.4-66.3-114.8-66.3c-47.3,0-91.1,25.3-114.8,66.3L17.8,565.3
		c-23.7,41-23.7,91.5,0,132.5s67.4,66.3,114.8,66.3h534.7c0.1,0,0.3,0,0.3,0c73.2,0,132.5-59.3,132.5-132.5
		C800,604.1,791.6,578.6,777.3,557.5z M456.6,601.8c0,31.3-24.1,55.3-56.6,55.3s-56.6-24-56.6-55.3v-1.3c0-31.2,24.1-55.3,56.6-55.3
		s56.6,24,56.6,55.3V601.8z M457.9,229.1l-28,244.5c-1.9,17.6-13.6,28.6-29.9,28.6s-28-11.1-29.9-28.6l-28-244.7
		c-1.9-18.9,8.4-33.2,26-33.2h63.7C449.4,195.9,459.8,210.2,457.9,229.1z"/>
</g>
</svg>
