<?xml version="1.0" encoding="utf-8"?>
<!-- Generator: Adobe Illustrator 24.3.0, SVG Export Plug-In . SVG Version: 6.00 Build 0)  -->
<svg version="1.1" id="Layer_1" xmlns="http://www.w3.org/2000/svg" xmlns:xlink="http://www.w3.org/1999/xlink" x="0px" y="0px"
	 viewBox="0 0 100 100" style="enable-background:new 0 0 100 100;" xml:space="preserve">
<style type="text/css">
	.st0{fill:#00629B;}
	.st1{fill-rule:evenodd;clip-rule:evenodd;fill:#FFFFFF;}
</style>
<path class="st0" d="M87.9,97.1h-77c-5,0-9-4-9-9v-77c0-5,4-9,9-9h77c5,0,9,4,9,9v77C96.9,93.1,92.8,97.1,87.9,97.1z"/>
<g id="Page-1">
	<g id="Dribbble-Light-Preview" transform="translate(-260.000000, -7559.000000)">
		<g id="icons" transform="translate(56.000000, 160.000000)">
			<path id="wordpress-_x5B__x23_139_x5D_" class="st1" d="M288.2,7430.6c0.2,1.2,0.3,2.5,0.3,4c0,6.8-0.6,7.2-14.7,48
				c11.5-6.7,19.2-19.1,19.2-33.4C292.9,7442.4,291.2,7436.1,288.2,7430.6L288.2,7430.6z M255,7452.5l-11.6,33.7
				c7.8,2.3,16.1,2.1,23.7-0.6c-0.1-0.2-0.2-0.3-0.3-0.5L255,7452.5z M280.4,7447.2c0-4.8-1.7-8.1-3.2-10.7c-2-3.2-3.8-5.9-3.8-9.1
				c0-3.6,2.7-6.9,6.5-6.9c0.2,0,0.3,0,0.5,0c-6.9-6.3-16-10.1-26.1-10.1c-13.5,0-25.4,6.9-32.3,17.4c2.5,0.1,5.8,0.1,12.8-0.4
				c2.1-0.1,2.3,2.9,0.2,3.2c0,0-2.1,0.2-4.4,0.4l14.1,41.9l8.5-25.4l-6-16.5c-2.1-0.1-4-0.4-4-0.4c-2.1-0.1-1.8-3.3,0.2-3.2
				c8,0.6,12.1,0.7,20.5,0c2.1-0.1,2.3,2.9,0.2,3.2c0,0-2.1,0.2-4.4,0.4l14,41.5C279.1,7454.1,280.4,7451,280.4,7447.2L280.4,7447.2
				z M215.7,7449.1c0,15.3,8.9,28.5,21.8,34.8l-18.4-50.5C216.9,7438.2,215.7,7443.5,215.7,7449.1L215.7,7449.1z"/>
		</g>
	</g>
</g>
</svg>
