<?xml version="1.0" encoding="utf-8"?>
<!-- Generator: Adobe Illustrator 24.3.0, SVG Export Plug-In . SVG Version: 6.00 Build 0)  -->
<svg version="1.1" id="Layer_1" xmlns="http://www.w3.org/2000/svg" xmlns:xlink="http://www.w3.org/1999/xlink" x="0px" y="0px"
	 viewBox="0 0 100 100" style="enable-background:new 0 0 100 100;" xml:space="preserve">
<style type="text/css">
	.st0{fill:#00629B;}
	.st1{fill:#FFFFFF;}
</style>
<path class="st0" d="M87.9,97.1h-77c-5,0-9-4-9-9v-77c0-5,4-9,9-9h77c5,0,9,4,9,9v77C96.9,93.1,92.8,97.1,87.9,97.1z"/>
<g>
	<g transform="scale(10.66667,10.66667)">
		<path class="st1" d="M7.9,2.7C7.8,2.3,7.6,2.1,7.3,2C6.7,1.8,4.5,1.8,4.5,1.8S2.3,1.8,1.7,2C1.5,2.1,1.3,2.3,1.2,2.7
			c-0.1,0.5-0.1,2-0.1,2s0,1.5,0.2,2C1.4,7,1.5,7.3,1.9,7.4c0.6,0.2,2.8,0.2,2.8,0.2s2.2,0,2.8-0.2C7.6,7.2,7.8,7,7.9,6.6
			c0.2-0.6,0.2-2,0.2-2S8,3.1,7.9,2.7z M3.9,5.9V3.4L6,4.6L3.9,5.9z"/>
	</g>
</g>
</svg>
